<?xml version="1.0" encoding="UTF-8" standalone="no"?><!-- Generator: Gravit.io --><svg xmlns="http://www.w3.org/2000/svg" xmlns:xlink="http://www.w3.org/1999/xlink" style="isolation:isolate" viewBox="0 0 500 500" width="500pt" height="500pt"><path d=" M 34 252 C 34 133.89 129.89 38 248 38 C 366.11 38 462 133.89 462 252 C 462 370.11 366.11 466 248 466 C 129.89 466 34 370.11 34 252 Z " fill="rgb(214,225,233)"/><path d=" M 85 116 Q 81.25 277 110 350 Q 138.75 423 228 460 L 251 464 L 275 456 L 334 423 L 371 380 Q 422.5 288 414 116 Q 279.5 112.5 249 43 Q 192.5 115.5 85 116 Z " fill="rgb(255,255,255)"/><path d=" M 83 155 Q 226.25 148.75 250 104 Q 307.813 150.438 412 155 L 412 114 Q 307.333 122.333 250 40 Q 219.333 108 83 114 L 83 155 Z " fill="rgb(166,202,251)"/><path d=" M 204.06 339.03 L 227.05 345.46 L 256 347 L 292.25 339.73 L 307.02 330.76 L 297.61 307.19 L 279.88 285.53 L 261.12 279.56 L 274 270 L 284.35 254 L 284.35 233 L 279.88 220.36 L 261.35 209 L 241.64 208 L 230 214 L 220.12 227 L 213.37 241.75 L 219.75 257 L 228 270 L 233 277 L 225.39 284 L 217 292 L 209.36 300.8 L 202.39 310 L 197.97 321.72 L 194.72 330.76 L 204.06 339.03 Z " fill="rgb(166,202,251)"/><path d=" M 84.03 123 C 82.17 123.01 80.39 122.28 79.07 120.97 C 77.75 119.66 77.01 117.88 77 116.03 C 76.99 114.17 77.72 112.39 79.03 111.07 C 80.34 109.75 82.12 109.01 83.97 109 C 94.65 108.96 105.32 108.44 115.95 107.46 C 124.82 106.64 133.64 105.36 142.37 103.62 C 149.83 102.13 157.22 100.25 164.48 97.98 C 170.81 96.01 177 93.66 183.05 90.95 C 186.57 89.37 190.04 87.65 193.43 85.8 C 196.63 84.06 199.76 82.19 202.81 80.2 C 205.73 78.29 208.57 76.26 211.33 74.12 C 214 72.05 216.59 69.86 219.08 67.57 C 221.53 65.32 223.89 62.96 226.15 60.51 C 228.41 58.06 230.57 55.51 232.61 52.88 C 234.69 50.22 236.65 47.46 238.5 44.63 C 242.95 37.82 246.74 30.59 249.83 23.06 C 254.44 33.38 260.15 43.17 266.86 52.26 C 270.33 56.97 274.13 61.43 278.23 65.6 C 282.01 69.46 286.07 73.05 290.37 76.34 C 294.5 79.5 298.85 82.35 303.4 84.88 C 305.02 85.78 306.22 87.29 306.73 89.08 C 307.24 90.86 307.02 92.78 306.12 94.4 C 305.22 96.02 303.71 97.22 301.92 97.73 C 300.14 98.24 298.22 98.02 296.6 97.12 C 291.46 94.26 286.53 91.03 281.86 87.45 C 277.04 83.77 272.49 79.74 268.24 75.41 C 263.68 70.77 259.45 65.81 255.59 60.57 C 253.66 57.96 251.81 55.29 250.03 52.57 C 248.03 55.63 245.91 58.6 243.66 61.48 C 241.38 64.42 238.97 67.26 236.45 69.99 C 233.93 72.73 231.29 75.36 228.55 77.88 C 225.77 80.43 222.89 82.87 219.91 85.18 C 216.86 87.55 213.71 89.8 210.47 91.91 C 207.11 94.12 203.66 96.18 200.12 98.1 C 196.42 100.12 192.63 102 188.78 103.72 C 182.23 106.67 175.5 109.21 168.65 111.35 C 160.91 113.76 153.05 115.76 145.11 117.35 C 135.89 119.18 126.59 120.54 117.24 121.4 C 106.2 122.42 95.12 122.96 84.03 123 Z " fill="rgb(58,129,239)"/><path d=" M 335.85 112.66 C 334.09 112.09 332.62 110.84 331.77 109.19 C 330.92 107.54 330.77 105.62 331.34 103.85 C 331.91 102.09 333.16 100.62 334.81 99.77 C 336.46 98.92 338.38 98.77 340.15 99.34 C 347.49 101.71 354.94 103.74 362.46 105.44 C 368.8 106.87 375.2 107.96 381.66 108.72 C 387.23 109.37 392.84 109.72 398.46 109.78 C 405.93 109.85 413.41 109.25 420.78 107.98 C 421.36 126.54 421.55 145.12 421.36 163.69 C 421.22 177.36 420.79 191.03 420.08 204.68 C 419.47 216.4 418.61 228.11 417.51 239.8 C 416.56 249.89 415.37 259.96 413.93 269.99 C 413.67 271.83 412.68 273.49 411.2 274.6 C 409.71 275.71 407.84 276.19 406.01 275.93 C 404.17 275.67 402.51 274.68 401.4 273.2 C 400.29 271.71 399.81 269.84 400.07 268.01 C 401.48 258.2 402.65 248.36 403.57 238.49 C 404.66 227 405.5 215.48 406.1 203.95 C 406.8 190.49 407.22 177.02 407.36 163.55 C 407.5 150.23 407.43 136.9 407.17 123.58 C 404.22 123.74 401.27 123.81 398.32 123.78 C 392.21 123.72 386.1 123.33 380.03 122.62 C 373.09 121.81 366.2 120.64 359.38 119.1 C 351.44 117.31 343.59 115.16 335.85 112.66 Z " fill="rgb(58,129,239)"/><path d=" M 91.98 208.51 C 92.11 210.36 91.5 212.19 90.28 213.59 C 89.07 214.99 87.34 215.85 85.49 215.98 C 83.64 216.11 81.81 215.5 80.41 214.28 C 79.01 213.07 78.15 211.34 78.02 209.49 C 77.79 206.22 77.58 202.94 77.4 199.67 C 77.21 196.19 77.05 192.72 76.91 189.24 C 76.46 178.06 76.24 166.87 76.26 155.67 C 76.28 142.36 76.52 129.05 77 115.75 C 77.07 113.89 77.87 112.14 79.23 110.88 C 80.59 109.61 82.4 108.94 84.25 109 C 86.11 109.07 87.86 109.87 89.12 111.23 C 90.39 112.59 91.06 114.4 91 116.25 C 90.52 129.39 90.28 142.54 90.26 155.69 C 90.24 166.69 90.46 177.69 90.9 188.68 C 91.04 192.09 91.2 195.5 91.38 198.9 C 91.56 202.11 91.76 205.31 91.98 208.51 Z " fill="rgb(58,129,239)"/><path d=" M 165.38 414.54 C 166.83 415.7 167.76 417.39 167.96 419.24 C 168.16 421.08 167.62 422.93 166.46 424.38 C 165.3 425.83 163.61 426.76 161.76 426.96 C 159.92 427.16 158.07 426.62 156.62 425.46 C 151.7 421.51 147.07 417.21 142.76 412.6 C 138.04 407.55 133.65 402.2 129.63 396.57 C 128.65 395.21 127.7 393.84 126.77 392.45 C 125.8 391.02 124.86 389.58 123.94 388.12 C 120.51 382.71 117.35 377.14 114.46 371.43 C 111.18 364.94 108.18 358.32 105.46 351.59 C 104.06 348.12 102.73 344.62 101.47 341.1 C 100.12 337.33 98.83 333.53 97.62 329.71 C 96.73 326.92 95.88 324.12 95.06 321.3 C 94.2 318.34 93.37 315.37 92.58 312.4 C 92 310.22 91.44 308.03 90.9 305.84 C 90.34 303.57 89.8 301.3 89.27 299.02 C 87.41 290.97 85.77 282.87 84.33 274.74 C 82.69 265.49 81.27 256.21 80.06 246.9 C 79.82 245.06 80.32 243.2 81.45 241.73 C 82.58 240.26 84.26 239.3 86.1 239.06 C 87.94 238.82 89.8 239.32 91.27 240.45 C 92.74 241.58 93.7 243.26 93.94 245.1 C 95.13 254.2 96.52 263.27 98.11 272.3 C 99.51 280.2 101.11 288.06 102.91 295.87 C 103.42 298.08 103.95 300.28 104.49 302.48 C 105.02 304.59 105.56 306.7 106.11 308.81 C 106.88 311.68 107.67 314.54 108.5 317.39 C 109.29 320.09 110.11 322.78 110.96 325.46 C 112.12 329.12 113.35 332.76 114.65 336.37 C 115.85 339.72 117.12 343.05 118.45 346.35 C 121.02 352.72 123.86 358.98 126.96 365.11 C 129.64 370.42 132.58 375.6 135.77 380.63 C 136.62 381.98 137.49 383.31 138.38 384.63 C 139.24 385.91 140.11 387.17 141.01 388.42 C 144.68 393.55 148.69 398.44 152.99 403.05 C 156.84 407.17 160.98 411.01 165.38 414.54 Z " fill="rgb(58,129,239)"/><path d=" M 390.23 314.22 C 390.7 312.43 391.87 310.89 393.47 309.96 C 395.07 309.02 396.98 308.76 398.78 309.23 C 400.57 309.7 402.11 310.87 403.04 312.47 C 403.98 314.07 404.24 315.98 403.77 317.78 C 400.67 329.59 396.8 341.18 392.19 352.49 C 388.13 362.45 383.33 372.1 377.84 381.34 C 375.28 385.65 372.56 389.85 369.69 393.95 C 366.91 397.92 363.97 401.78 360.9 405.53 C 357.89 409.19 354.74 412.73 351.45 416.14 C 348.21 419.53 344.83 422.78 341.33 425.89 C 335.25 431.3 328.82 436.29 322.07 440.83 C 315.22 445.44 308.07 449.61 300.67 453.3 C 293.05 457.1 285.2 460.43 277.17 463.29 C 268.23 466.46 259.11 469.11 249.86 471.22 C 237.55 467.88 225.44 463.87 213.58 459.21 C 204.01 455.44 194.68 451.08 185.64 446.14 C 184.02 445.25 182.81 443.75 182.28 441.97 C 181.76 440.19 181.97 438.27 182.86 436.64 C 183.75 435.02 185.25 433.81 187.03 433.28 C 188.81 432.76 190.73 432.97 192.36 433.86 C 200.87 438.51 209.68 442.62 218.71 446.18 C 229 450.23 239.49 453.76 250.14 456.77 C 257.69 454.93 265.15 452.7 272.48 450.1 C 279.98 447.43 287.31 444.32 294.43 440.77 C 301.28 437.35 307.9 433.49 314.26 429.22 C 320.48 425.02 326.41 420.42 332.02 415.43 C 335.25 412.56 338.36 409.56 341.36 406.45 C 344.39 403.29 347.3 400.02 350.08 396.64 C 352.93 393.17 355.65 389.6 358.22 385.92 C 360.89 382.11 363.42 378.19 365.8 374.19 C 370.94 365.54 375.43 356.52 379.23 347.2 C 383.61 336.46 387.28 325.44 390.23 314.22 Z " fill="rgb(58,129,239)"/><path d=" M 145.82 144.1 C 147.65 143.79 149.53 144.21 151.04 145.29 C 152.56 146.36 153.59 147.99 153.9 149.82 C 154.21 151.65 153.79 153.53 152.71 155.04 C 151.64 156.56 150.01 157.59 148.18 157.9 C 137.24 159.77 126.2 160.98 115.12 161.5 C 104.56 162.01 93.97 161.83 83.44 160.98 C 81.59 160.83 79.87 159.95 78.67 158.53 C 77.46 157.12 76.87 155.28 77.02 153.44 C 77.17 151.59 78.05 149.87 79.47 148.67 C 80.88 147.46 82.72 146.87 84.56 147.02 C 94.51 147.83 104.49 147.99 114.45 147.52 C 124.97 147.02 135.44 145.88 145.82 144.1 Z " fill="rgb(58,129,239)"/><path d=" M 412.83 146 C 414.68 145.96 416.48 146.65 417.83 147.93 C 419.17 149.21 419.95 150.97 420 152.83 C 420.04 154.68 419.35 156.48 418.07 157.83 C 416.79 159.17 415.03 159.95 413.17 160 C 409.93 160.08 406.7 160.17 403.46 160.26 C 399.93 160.37 396.4 160.47 392.87 160.55 C 389.36 160.63 385.85 160.67 382.34 160.68 C 378 160.69 373.66 160.59 369.32 160.39 C 364.92 160.19 360.53 159.84 356.15 159.33 C 346.93 158.28 337.83 156.4 328.95 153.69 C 326.04 152.8 323.15 151.84 320.28 150.82 C 317.32 149.77 314.38 148.66 311.47 147.49 C 309.17 146.56 306.89 145.6 304.62 144.6 C 302.28 143.57 299.97 142.51 297.67 141.41 C 288.88 137.21 280.34 132.54 272.07 127.41 C 264.43 122.66 256.98 117.62 249.73 112.29 C 248.94 113.06 248.13 113.81 247.31 114.55 C 244.67 116.91 241.93 119.14 239.09 121.25 C 235.97 123.57 232.75 125.77 229.46 127.83 C 225.82 130.12 222.1 132.27 218.31 134.3 C 213.24 137.04 208.07 139.6 202.82 141.97 C 196.14 145 189.38 147.85 182.55 150.52 C 180.82 151.2 178.89 151.16 177.19 150.41 C 175.49 149.67 174.15 148.27 173.48 146.55 C 172.8 144.82 172.84 142.89 173.59 141.19 C 174.33 139.49 175.73 138.15 177.45 137.48 C 184.06 134.9 190.59 132.15 197.04 129.22 C 202.01 126.97 206.89 124.56 211.69 121.97 C 215.2 120.09 218.64 118.09 222.02 115.97 C 225.01 114.1 227.92 112.11 230.74 110.01 C 233.24 108.16 235.65 106.19 237.97 104.12 C 241.63 100.84 244.97 97.22 247.96 93.32 C 258.02 101.32 268.54 108.73 279.46 115.51 C 287.29 120.38 295.38 124.8 303.7 128.78 C 305.87 129.82 308.06 130.82 310.26 131.79 C 312.39 132.73 314.54 133.63 316.7 134.5 C 319.43 135.6 322.18 136.64 324.96 137.63 C 327.64 138.58 330.33 139.47 333.05 140.31 C 341.11 142.76 349.37 144.47 357.74 145.43 C 361.8 145.89 365.88 146.22 369.96 146.41 C 374.08 146.59 378.2 146.68 382.32 146.68 C 385.73 146.67 389.14 146.63 392.55 146.55 C 396.04 146.47 399.54 146.38 403.03 146.27 C 406.3 146.17 409.56 146.08 412.83 146 Z " fill="rgb(58,129,239)"/><path d=" M 248.99 284 L 248.83 284 C 248.82 284 248.81 284 248.79 284 C 244.85 283.97 240.92 284.42 237.09 285.33 C 233.57 286.2 230.19 287.56 227.05 289.36 C 223.69 291.34 220.59 293.74 217.84 296.5 C 216.26 298.07 214.77 299.72 213.37 301.44 C 211.86 303.3 210.43 305.22 209.08 307.19 C 207.26 310.35 205.71 313.65 204.44 317.07 C 203 320.97 201.74 324.95 200.68 328.97 C 201.25 329.47 201.81 329.95 202.39 330.43 C 203.06 330.99 203.77 331.51 204.5 331.98 C 204.71 332.12 204.93 332.25 205.15 332.38 C 205.24 332.42 205.33 332.47 205.42 332.51 C 206.87 333.15 208.02 334.34 208.59 335.83 C 209.17 337.31 209.13 338.96 208.49 340.42 C 207.85 341.87 206.66 343.02 205.17 343.59 C 203.69 344.17 202.04 344.13 200.58 343.49 C 200.15 343.3 199.73 343.09 199.32 342.86 C 198.86 342.61 198.41 342.34 197.97 342.05 C 196.84 341.32 195.75 340.52 194.72 339.66 C 192.18 337.54 189.74 335.31 187.42 332.95 C 188.84 326.14 190.77 319.43 193.19 312.9 C 194.74 308.71 196.66 304.66 198.92 300.8 C 200.53 298.42 202.24 296.1 204.06 293.87 C 205.72 291.83 207.49 289.87 209.36 288.02 C 212.84 284.52 216.76 281.48 221.02 278.99 C 225.16 276.6 229.62 274.81 234.26 273.67 C 239.04 272.53 243.94 271.97 248.86 272 L 249.01 272 C 254.09 272 259.16 272.64 264.09 273.9 C 269.03 275.17 273.78 277.07 278.23 279.56 C 282.8 282.13 287.02 285.28 290.77 288.94 C 294.74 292.81 298.21 297.16 301.11 301.89 C 302.28 303.79 303.35 305.75 304.3 307.76 C 305.32 309.9 306.23 312.08 307.02 314.31 C 307.89 316.74 308.64 319.22 309.26 321.72 C 310.17 325.42 310.86 329.18 311.33 332.96 C 308.78 335.97 305.82 338.6 302.53 340.77 C 299.77 342.59 296.86 344.16 293.82 345.46 C 290.75 346.77 287.58 347.86 284.35 348.7 C 280.4 349.73 276.39 350.53 272.34 351.09 C 270.71 351.32 269.08 351.51 267.44 351.67 C 265.66 351.85 263.87 351.99 262.09 352.1 C 260.8 352.18 259.5 352.24 258.21 352.29 C 256.84 352.34 255.46 352.37 254.09 352.39 C 249.74 352.45 245.39 352.38 241.04 352.16 C 235.82 351.9 230.6 351.5 225.39 350.97 C 223.81 350.81 222.35 350.02 221.35 348.79 C 220.34 347.55 219.87 345.97 220.03 344.39 C 220.19 342.81 220.98 341.35 222.21 340.35 C 223.45 339.34 225.03 338.87 226.61 339.03 C 231.61 339.54 236.62 339.93 241.64 340.18 C 245.73 340.38 249.83 340.45 253.92 340.4 C 255.21 340.38 256.49 340.34 257.77 340.3 C 258.97 340.25 260.16 340.2 261.35 340.12 C 262.99 340.02 264.63 339.89 266.27 339.73 C 267.75 339.59 269.22 339.41 270.69 339.21 C 274.27 338.71 277.82 338 281.31 337.09 C 283.97 336.4 286.57 335.51 289.1 334.43 C 291.48 333.41 293.76 332.18 295.91 330.76 C 296.82 330.16 297.7 329.51 298.53 328.81 C 298.26 327.4 297.95 326 297.61 324.6 C 297.09 322.49 296.46 320.4 295.72 318.35 C 295.06 316.5 294.31 314.69 293.47 312.91 C 292.69 311.29 291.83 309.71 290.89 308.18 C 288.51 304.29 285.66 300.71 282.4 297.53 C 279.39 294.6 276.02 292.08 272.36 290.03 C 268.82 288.05 265.04 286.53 261.12 285.53 C 257.16 284.52 253.08 284 248.99 284 C 248.99 284 248.99 284 248.99 284 Z " fill="rgb(58,129,239)"/><path d=" M 207.75 241.75 C 207.75 230.55 212.2 219.79 220.12 211.87 C 228.05 203.95 238.8 199.5 250 199.5 C 261.2 199.5 271.95 203.95 279.88 211.87 C 287.8 219.79 292.25 230.55 292.25 241.75 C 292.25 252.95 287.8 263.7 279.88 271.63 C 271.95 279.55 261.2 284 250 284 C 238.8 284 228.05 279.55 220.12 271.63 C 212.2 263.7 207.75 252.95 207.75 241.75 Z  M 219.75 241.75 C 219.75 233.73 222.94 226.03 228.61 220.36 C 234.28 214.69 241.98 211.5 250 211.5 C 258.02 211.5 265.72 214.69 271.39 220.36 C 277.06 226.03 280.25 233.73 280.25 241.75 C 280.25 249.77 277.06 257.47 271.39 263.14 C 265.72 268.81 258.02 272 250 272 C 241.98 272 234.28 268.81 228.61 263.14 C 222.94 257.47 219.75 249.77 219.75 241.75 Z " fill-rule="evenodd" fill="rgb(58,129,239)"/></svg>